<?xml version="1.0" encoding="utf-8"?>
<!DOCTYPE svg PUBLIC "-//W3C//DTD SVG 1.0//EN" "http://www.w3.org/TR/2001/REC-SVG-20010904/DTD/svg10.dtd">
<svg version="1.0" xmlns="http://www.w3.org/2000/svg" width="1200px" height="193px" viewBox="0 0 1200 193" preserveAspectRatio="xMidYMid meet">

 <g fill="#1694d2">
  <path d="M0 56 l0 -54 62.5 0 c34.4 0 62.5 0.3 62.5 0.6 0 0.3 -4.5 6.5 -10.1 13.7 l-10.1 13.2 -35.1 0.5 -35.2 0.5 -0.3 6.3 -0.3 6.2 42.6 0 c28.2 0 42.6 0.3 42.3 1 -0.2 0.6 -4.4 6.2 -9.3 12.5 l-9 11.5 -33.2 0 -33.3 0 0 7 0 7 45.5 0 c35.7 0 45.5 0.3 45.5 1.3 0 0.6 -4.5 6.8 -9.9 13.7 l-9.8 12.5 -52.6 0.3 -52.7 0.2 0 -54z"/>
  <path d="M128.6 101.8 c3.2 -4.6 12.9 -18.2 21.4 -30.3 8.6 -12.1 22.2 -31.3 30.2 -42.6 8 -11.3 16.3 -21.8 18.4 -23.4 10.5 -8 22.4 -7.3 32 2 3 2.9 14.1 18 26.2 35.5 11.5 16.8 26.5 38.6 33.4 48.5 l12.4 18 -31.3 0.3 c-17.2 0.1 -45.4 0.1 -62.7 0 l-31.4 -0.3 10.1 -13.7 10.1 -13.8 22.8 0 22.8 0 -6.9 -9.7 c-3.7 -5.4 -10.3 -15.1 -14.6 -21.5 -4.3 -6.5 -8.1 -11.6 -8.5 -11.3 -0.4 0.2 -11.9 16.2 -25.5 35.5 l-24.8 35 -19.9 0 -19.9 0 5.7 -8.2z"/>
  <path d="M308 82.6 l0 -27.5 51.3 -0.3 51.3 -0.3 4.1 -2.7 c8.2 -5.4 7.6 -14.9 -1.2 -19.3 -3.8 -1.9 -6.3 -2 -54.2 -2.3 -27.7 -0.1 -50.3 -0.6 -50.3 -1 0 -0.4 4.1 -5.8 9.1 -12.1 4.9 -6.3 9.5 -12.3 10 -13.3 1 -1.9 2.7 -1.9 45.2 -1.6 43.1 0.4 44.4 0.4 51.2 2.7 14.6 4.9 22 10.2 27 19.3 3.7 6.8 4.7 19.7 2.1 27.6 -3.5 10.5 -12 19.1 -22 22.2 l-3.9 1.3 8.7 8.4 c4.9 4.6 8.6 8.6 8.4 8.8 -0.2 0.2 -7.3 1.1 -15.8 2 -8.5 0.8 -17.3 1.8 -19.5 2 -4 0.6 -4.1 0.5 -10 -6.9 l-6 -7.5 -25.7 -0.1 -25.8 0 0 11.4 0 11.4 -9.7 1.6 c-5.4 0.9 -12.2 2.1 -15.2 2.6 -10.1 1.8 -9.1 4.7 -9.1 -26.4z"/>
  <path d="M720 90.6 l-15.5 -1.1 -0.3 -10.2 -0.3 -10.3 -31.9 0 -32 0 0 9 0 9 -17 0 -17 0 0 -42.5 0 -42.5 17 0 17 0 0 19 0 19 32 0 32 0 0 -19 0 -19 17 0 17 0 -0.2 44.7 c-0.2 28.8 -0.7 44.7 -1.3 44.8 -0.5 0.1 -8 -0.3 -16.5 -0.9z"/>
  <path d="M507.8 59.9 l-0.3 -29.4 -24.7 -0.3 c-13.7 -0.1 -24.8 -0.4 -24.8 -0.7 0 -0.7 18.9 -25.2 20.4 -26.4 0.9 -0.8 19.6 -1 62.4 -0.9 l61.2 0.3 -10.8 13.8 -10.7 13.9 -19.2 -0.1 -19.3 -0.2 0 29.1 0 29 -10.9 0 c-5.9 0 -13.6 0.3 -16.9 0.6 l-6.2 0.7 -0.2 -29.4z"/>
 </g>
 <g fill="#e62028">
  <path d="M1023.9 110.2 c-1.9 -1 -10.5 -8.1 -19 -15.7 -41.7 -37.7 -51.1 -46 -52 -46.3 -0.5 -0.2 -0.9 11.6 -0.9 30.7 l0 31.1 -15.2 0 -15.3 0 0.2 -47.7 c0.3 -41 0.5 -48.4 1.9 -52.1 2.8 -7.6 12.1 -11.7 20.9 -9.2 4.5 1.3 5.1 1.8 56.3 47.7 9.9 8.9 18.3 15.9 18.6 15.5 0.4 -0.3 0.6 -14.3 0.6 -31.1 l-0.1 -30.6 15 -0.3 15.1 -0.3 0 47.8 c0 44.3 -0.2 48.1 -1.9 51.8 -2.1 4.6 -5.4 7.9 -9.4 9.4 -4.3 1.6 -10.9 1.3 -14.8 -0.7z"/>
  <path d="M881.5 108.6 l-7 -1.1 -0.3 -52.8 -0.2 -52.7 17 0 17 0 0 54 0 54 -9.7 -0.1 c-5.4 -0.1 -12.9 -0.7 -16.8 -1.3z"/>
  <path d="M1063.2 56.3 l0.3 -53.8 16.8 -0.3 16.7 -0.2 0 21.6 0 21.6 4.8 -4.2 c8 -7 35.4 -30.2 40.9 -34.8 l5.2 -4.2 23.8 0.2 23.8 0.3 -26 19.5 c-14.3 10.8 -29.5 22 -33.7 25 -4.3 2.9 -7.8 5.7 -7.8 6.1 0 0.3 3.3 3 7.3 5.9 3.9 2.9 20 15.5 35.5 27.9 l28.4 22.6 -25.2 0.3 -25.1 0.2 -23.6 -20.7 c-12.9 -11.5 -24.6 -21.6 -25.9 -22.6 l-2.4 -1.9 0 22.6 0 22.6 -17 0 -17 0 0.2 -53.7z"/>
  <path d="M845 103 c-27.5 -3.9 -50.5 -6.5 -80.3 -9.3 l-12.8 -1.2 0 -45 0.1 -45 16.5 -0.3 16.5 -0.2 0 40 0 40 41.5 0 c23.2 0 41.5 0.4 41.5 0.9 0 1.3 -15.9 21.1 -16.8 21 -0.4 -0.1 -3.2 -0.5 -6.2 -0.9z"/>
 </g>
 <g fill="#a6a5a5">
  <path d="M54.5 186.7 c3.7 -2.5 24.9 -11.5 42.6 -18.1 49.2 -18.3 116 -35.3 184.2 -47.1 95.5 -16.4 209.6 -25.5 318.7 -25.5 70 0 159.8 4.7 218.5 11.5 7.2 0.9 17.1 2 22 2.6 15.4 1.7 51.1 6.8 73 10.5 86.1 14.4 159.4 34.3 217.5 59.1 16.7 7.1 16.6 7.1 15.9 7.8 -0.3 0.2 -5.4 -1.2 -11.4 -3.1 -109.8 -34.7 -247.8 -56.9 -409.5 -65.9 -67.2 -3.7 -185.9 -3.7 -252 0.1 -134.6 7.6 -244.9 22.9 -345.5 48 -12.1 3 -24 6.1 -26.5 6.8 -2.5 0.8 -8.8 2.6 -14 4.1 -5.2 1.5 -15 4.5 -21.7 6.6 -13.3 4.3 -14.7 4.6 -11.8 2.6z"/>
 </g>
</svg>